<?xml version="1.0" encoding="UTF-8" standalone="no"?>
<!DOCTYPE svg PUBLIC "-//W3C//DTD SVG 1.1//EN" "http://www.w3.org/Graphics/SVG/1.1/DTD/svg11.dtd">
<svg width="100%" height="100%" viewBox="0 0 681 681" version="1.1" xmlns="http://www.w3.org/2000/svg" xmlns:xlink="http://www.w3.org/1999/xlink" xml:space="preserve" style="fill-rule:evenodd;clip-rule:evenodd;stroke-linejoin:round;stroke-miterlimit:2;">
    <g transform="matrix(0.1,0,0,0.1,0,-0.005)">
        <rect x="0" y="0" width="6810" height="6803.15" style="fill:white;"/>
    </g>
    <g transform="matrix(0.1,0,0,0.1,0,-0.005)">
        <rect x="0" y="0" width="6803.15" height="6803.15" style="fill:rgb(251,251,251);"/>
    </g>
    <g transform="matrix(0.1,0,0,0.1,0,-86.979)">
        <path d="M3669.54,2065.83L3521.52,3041.74L3553.17,3041.74L3696.08,2093.39L5946.99,2434.35L5475.37,5555L4825.11,5457L4825.11,5504.98L5497.83,5607.06L5979.66,2414.95L3669.54,2065.83Z" style="fill:rgb(247,247,247)"/>
    </g>
    <g transform="matrix(0.0149384,-0.0988779,-0.0988779,-0.0149384,770.62,806.361)">
        <path d="M3007.11,4986.91L6164.21,4986.91L6163.33,2710.33L3007.24,2710.47L3007.11,4986.91Z" style="fill:rgb(240,240,240)"/>
    </g>
    <g transform="matrix(0.0988904,0.0148556,0.0148556,-0.0988904,-54.4483,607.587)">
        <path d="M3775.48,4058.62L5417.83,4058.62L5418.41,3958.58L3773.89,3959.29L3775.48,4058.62Z" style="fill:rgb(224,224,224)"/>
    </g>
    <g transform="matrix(0.0988841,0.0148973,0.0148973,-0.0988841,-50.9628,608.192)">
        <path d="M3736.7,3811.95L5381.22,3811.95L5379.66,3712.61L3737.32,3711.91L3736.7,3811.95Z" style="fill:rgb(224,224,224)"/>
    </g>
    <g transform="matrix(0.0988732,0.0149696,0.0149696,-0.0988732,-65.1522,598.502)">
        <path d="M4686.26,4786.98L5531.84,4786.98L5531.53,4686.79L4684.94,4686.64L4686.26,4786.98Z" style="fill:rgb(224,224,224)"/>
    </g>
    <g transform="matrix(0.0988991,0.0147979,0.0147979,-0.0988991,-60.8637,600.324)">
        <rect x="4723.01" y="4440.33" width="697.241" height="100.044" style="fill:rgb(108,99,255);"/>
    </g>
    <g transform="matrix(0.0988817,0.0149133,0.0149133,-0.0988817,-47.7078,610.394)">
        <path d="M3700.96,3580.73L5145.24,3580.73L5145.88,3480.68L3701.6,3480.68L3700.96,3580.73Z" style="fill:rgb(224,224,224)"/>
    </g>
    <g transform="matrix(0.0988804,0.0149223,0.0149223,-0.0988804,-44.4354,612.634)">
        <rect x="3665.31" y="3249.4" width="1244.69" height="100.196" style="fill:rgb(224,224,224);"/>
    </g>
    <g transform="matrix(0.098882,0.0149114,0.0149114,-0.098882,-41.0141,614.601)">
        <path d="M3629.41,3113.78L4724.74,3113.78L4723.36,3013.43L3628.88,3014.6L3629.41,3113.78Z" style="fill:rgb(224,224,224)"/>
    </g>
    <g transform="matrix(0.0988882,0.0148701,0.0148701,-0.0988882,-36.8062,613.452)">
        <path d="M3591.05,2845.89L4984.65,2845.89L4985.25,2745.85L3589.63,2745.54L3591.05,2845.89Z" style="fill:rgb(224,224,224)"/>
    </g>
    <g transform="matrix(0.0989155,0.0146876,0.0146876,-0.0989155,-34.2229,621.195)">
        <rect x="3557.13" y="2562.82" width="548.424" height="100.196" style="fill:rgb(108,99,255);"/>
    </g>
    <g transform="matrix(0.1,0,0,0.1,0,-288.591)">
        <path d="M3989.25,4678.4C3933.18,4727.12 3893.34,4796.52 3881.54,4876.25C3872.68,4938.26 3881.54,5001.75 3905.14,5057.86L3919.9,5057.86C3891.86,5000.28 3880.06,4933.83 3890.39,4865.91C3900.72,4790.62 3937.61,4725.65 3989.25,4678.4M4366.97,4631.15C4480.59,4696.12 4548.46,4824.57 4527.8,4961.88C4523.38,4995.85 4513.05,5028.33 4498.29,5057.86L4516,5057.86C4527.8,5031.28 4535.18,5004.71 4539.61,4975.17C4561.74,4831.96 4487.96,4696.12 4366.97,4631.15" style="fill:rgb(243,243,243)"/>
    </g>
    <g transform="matrix(-0.0148904,0.0988852,0.0988852,0.0148904,11.3349,-284.464)">
        <path d="M4208.53,4453C4029.47,4452.88 3885.43,4596.7 3885.35,4775.63C3885.5,4953.1 4030.93,5097.27 4208.53,5097.18C4386.14,5097.08 4531.64,4953.48 4531.72,4774.55C4531.57,4597.08 4386.14,4452.91 4208.53,4453" style="fill:rgb(245,245,245)"/>
    </g>
    <g transform="matrix(-0.0966134,-0.0258042,-0.0258042,0.0966134,911.455,-117.928)">
        <path d="M4027.21,4504.51C4027.21,4504.51 4102.17,4519.95 4065.67,4656.62C4054.11,4665.74 4041.89,4671.62 4027.21,4675.33L4000.49,4524.83L4027.21,4504.51" style="fill:rgb(253,165,125)"/>
    </g>
    <g transform="matrix(-0.0999396,-0.00347385,-0.00347385,0.0999396,882.146,-213.648)">
        <path d="M4359.53,4462.57C4359.53,4462.57 4285.41,4477.68 4320.45,4613.07C4331.9,4622.32 4346.4,4628.72 4359.53,4632.12L4385.34,4482.63L4359.53,4462.57" style="fill:rgb(253,165,125)"/>
    </g>
    <g transform="matrix(-0.0442404,0.0896816,0.0896816,0.0442404,180.515,-382.962)">
        <path d="M4130.09,4595.9C4130.09,4595.9 4243.68,4592.73 4239.58,4570.98C4239.58,4570.98 4340.1,4804.72 4130.09,4916.51C4102.17,4886.29 4078.84,4853.41 4060.13,4817.87L4130.09,4595.9" style="fill:rgb(51,51,51)"/>
    </g>
    <g transform="matrix(-0.014932,0.0988789,0.0988789,0.014932,2.2978,-298.938)">
        <path d="M4223.11,4743.3C4144.19,4743.29 4081.01,4806.72 4081.01,4885.63C4080.99,4964.55 4144.2,5029.19 4223.11,5029.19C4302.04,5029.2 4366.9,4964.55 4366.89,4885.62C4366.91,4806.71 4302.03,4743.3 4223.11,4743.3" style="fill:rgb(51,51,51)"/>
    </g>
    <g transform="matrix(0.1,0,0,0.1,0,-249.8)">
        <path d="M4235.5,4658.01L4307.55,4669.95L4235.5,4658.01M4061.98,4631.15L4138.45,4643.09L4061.98,4631.15M4060.52,4631.15L4061.98,4631.15L4060.52,4631.15" style="fill:rgb(220,220,220)"/>
    </g>
    <g transform="matrix(-0.1,0,0,0.1,810.674,-249.8)">
        <path d="M4045.2,4631.15L4046.69,4631.15L4061.54,4669.95L4060.05,4669.95L4045.2,4631.15" style="fill:rgb(227,148,112)"/>
    </g>
    <g transform="matrix(0.1,0,0,0.1,0,-228.261)">
        <path d="M4309.7,4454.19L4061.9,4415.76L4025.02,4511.82C4025.02,4511.82 4004.37,4556.16 4017.64,4578.33C4032.39,4600.49 4181.38,4669.95 4306.75,4625.62C4321.5,4600.49 4325.93,4572.41 4322.98,4544.33C4317.08,4495.57 4320.03,4539.9 4320.03,4539.9L4309.7,4454.19" style="fill:rgb(253,216,53)"/>
    </g>
    <g transform="matrix(0.1,0,0,0.1,0,-254.393)">
        <path d="M4246.3,4643.4L4235.07,4703.63L4246.3,4643.4" style="fill:rgb(220,220,220)"/>
    </g>
    <g transform="matrix(0.1,0,0,0.1,0,-261.437)">
        <path d="M4250.9,4703.63L4242.73,4713.84L4250.9,4703.63" style="fill:rgb(46,46,46)"/>
    </g>
    <g transform="matrix(0.1,0,0,0.1,0,-248.269)">
        <rect x="4231.5" y="4638.81" width="8.164" height="8.168" style="fill:rgb(198,198,198);"/>
    </g>
    <g transform="matrix(0.1,0,0,0.1,0,-248.166)">
        <path d="M4235.07,4641.63L4235.07,4646.12C4235.07,4649.12 4233.61,4650.61 4233.61,4653.61C4233.61,4652.11 4235.07,4650.61 4235.07,4649.12L4235.07,4641.63M4136.51,4631.15L4136.51,4634.14C4135.04,4641.63 4136.51,4647.62 4137.98,4653.61L4139.45,4653.61C4136.51,4647.62 4135.04,4640.13 4136.51,4631.15" style="fill:rgb(227,194,48)"/>
    </g>
    <g transform="matrix(0.1,0,0,0.1,0,-254.189)">
        <path d="M4150.14,4601.55L4248.35,4617.81L4235.15,4706.49C4232.22,4728.66 4211.7,4743.44 4189.71,4739.01L4170.66,4736.05C4148.67,4733.1 4134.02,4712.4 4136.95,4691.71L4150.14,4601.55" style="fill:rgb(253,165,125)"/>
    </g>
    <g transform="matrix(0.1,0,0,0.1,0,-263.887)">
        <path d="M4148.3,4710.78L4148.3,4713.69C4170.47,4725.36 4194.12,4731.19 4217.77,4731.19C4228.11,4731.19 4236.98,4729.74 4247.32,4728.27L4247.32,4726.82C4238.46,4728.27 4228.11,4729.74 4219.25,4729.74C4211.86,4729.74 4204.46,4728.27 4197.08,4726.82C4179.34,4725.36 4163.09,4719.52 4148.3,4710.78" style="fill:rgb(227,148,112)"/>
    </g>
    <g transform="matrix(-0.0150139,0.0988665,0.0988665,0.0150139,5.03527,-295.267)">
        <path d="M4218.23,4713.81C4139.2,4713.74 4075.87,4777.2 4075.8,4856.24C4075.72,4935.28 4139.2,4998.6 4218.23,4998.68C4297.27,4998.75 4360.59,4935.28 4360.66,4856.25C4362.19,4777.44 4297.26,4713.89 4218.23,4713.81" style="fill:rgb(253,165,125)"/>
    </g>
    <g transform="matrix(0.1,0,0,0.1,0,-310.539)">
        <path d="M4091.14,4977.82L4360.64,5019.07C4360.64,5019.07 4354.75,4907.1 4251.66,4898.26C4148.57,4889.42 4091.14,4977.82 4091.14,4977.82" style="fill:rgb(51,51,51)"/>
    </g>
    <g transform="matrix(-0.0162629,0.0986687,0.0986687,0.0162629,-7.25767,-290.088)">
        <path d="M4081.57,4868.3C4067.88,4869.09 4056.37,4874.84 4056.61,4882.51C4055.39,4889.95 4066.39,4896.34 4081.57,4895.78C4095.01,4896.48 4106.52,4890.73 4106.28,4883.06C4106.03,4875.38 4095.03,4868.98 4081.57,4868.3Z" style="fill:rgb(253,165,125)"/>
    </g>
    <g transform="matrix(-0.0168451,0.098571,0.098571,0.0168451,31.8763,-314.869)">
        <path d="M4357.07,4828.44C4343.88,4827.72 4332.54,4833.43 4332.72,4841.1C4332.87,4848.78 4343.62,4855.2 4357.07,4854.44C4370.25,4855.16 4381.59,4849.45 4381.41,4841.78C4382.69,4834.35 4371.94,4827.93 4357.07,4828.44Z" style="fill:rgb(253,165,125)"/>
    </g>
    <g transform="matrix(0.1,0,0,0.1,0,-301.249)">
        <path d="M4357.69,4926.27L4357.69,4929.23L4360.64,4929.23C4360.64,4929.23 4360.64,4927.75 4359.16,4926.27L4357.69,4926.27M4094.09,4886.36C4091.14,4887.84 4091.14,4889.31 4091.14,4889.31L4094.09,4889.31C4094.09,4887.84 4095.56,4887.84 4095.56,4886.36L4094.09,4886.36" style="fill:rgb(46,46,46)"/>
    </g>
    <g transform="matrix(-0.0161539,0.0986866,0.0986866,0.0161539,6.51906,-306.788)">
        <path d="M4225.77,4775.83C4227.23,4776.07 4227.46,4774.62 4228.91,4774.85L4225.77,5041.21C4224.31,5040.97 4222.85,5040.73 4222.85,5040.73L4225.77,4775.83" style="fill:rgb(227,148,112)"/>
    </g>
    <g transform="matrix(0.1,0,0,0.1,0,-309.416)">
        <path d="M4237.23,4889.42C4154.66,4889.42 4104.52,4951.59 4094.2,4967.87L4095.68,4967.87L4358.14,5007.84L4359.62,5007.84C4358.14,4988.6 4343.39,4898.3 4250.5,4890.9C4246.08,4889.42 4241.66,4889.42 4237.23,4889.42" style="fill:rgb(46,46,46)"/>
    </g>
    <g transform="matrix(0.1,0,0,0.1,0,7.651)">
        <path d="M3136.67,1577.88L823.492,1952.52L1341.05,5148.71L2489.47,4962.92L2489.47,4896.57L1366.57,5081.34L856.156,1965.79L3102.98,1597.28L3184.65,2095.44L3221.4,2095.44L3136.67,1577.88Z" style="fill:rgb(247,247,247)"/>
    </g>
    <g transform="matrix(0.0986815,-0.0161851,-0.0161851,-0.0986815,57.7701,712.014)">
        <path d="M1096.64,4965.82L3373.48,4965.82L3373.07,1809.76L1096.07,1808.74L1096.64,4965.82Z" style="fill:rgb(240,240,240)"/>
    </g>
    <g transform="matrix(0.0986778,-0.016208,-0.016208,-0.0986778,60.3445,711.217)">
        <path d="M1373.88,3593.15L3017.7,3593.15L3017.94,3493.81L1374.28,3494.8L1373.88,3593.15Z" style="fill:rgb(224,224,224)"/>
    </g>
    <g transform="matrix(0.0986876,-0.0161482,-0.0161482,-0.0986876,56.1822,712.086)">
        <rect x="1413.91" y="3247.27" width="1643.79" height="100.359" style="fill:rgb(224,224,224);"/>
    </g>
    <g transform="matrix(0.0986847,-0.0161658,-0.0161658,-0.0986847,74.2643,714.288)">
        <path d="M2036.72,4443.91L2882.89,4443.91L2881.99,4343.72L2036.84,4343.55L2036.72,4443.91Z" style="fill:rgb(224,224,224)"/>
    </g>
    <g transform="matrix(0.098698,-0.0160842,-0.0160842,-0.098698,69.9855,715.122)">
        <rect x="2151.03" y="4098.64" width="698.33" height="100.357" style="fill:rgb(108,99,255);"/>
    </g>
    <g transform="matrix(0.0986923,-0.016119,-0.016119,-0.0986923,51.7701,711.442)">
        <path d="M1456.06,3085.19L2900.01,3085.19L2899.49,2987.01L1456.21,2984.83L1456.06,3085.19Z" style="fill:rgb(224,224,224)"/>
    </g>
    <g transform="matrix(0.0986746,-0.016227,-0.016227,-0.0986746,47.8355,711.024)">
        <path d="M1496.95,2823.88L2742.52,2823.88L2741.56,2723.69L1497.33,2725.53L1496.95,2823.88Z" style="fill:rgb(224,224,224)"/>
    </g>
    <g transform="matrix(0.0986966,-0.0160927,-0.0160927,-0.0986966,43.2078,710.596)">
        <path d="M1537.96,2566.03L2635.35,2566.03L2633.68,2467L1538.14,2465.67L1537.96,2566.03Z" style="fill:rgb(224,224,224)"/>
    </g>
    <g transform="matrix(0.0986807,-0.0161902,-0.0161902,-0.0986807,40.1492,714.109)">
        <path d="M1577.83,2344.67L2971.26,2344.67L2971.35,2244.32L1575.9,2244.64L1577.83,2344.67Z" style="fill:rgb(224,224,224)"/>
    </g>
    <g transform="matrix(0.098709,-0.0160167,-0.0160167,-0.098709,34.1626,708.127)">
        <path d="M1623.11,2029.6L2171.23,2029.6L2169.8,1931.58L1623.54,1930.25L1623.11,2029.6Z" style="fill:rgb(108,99,255)"/>
    </g>
    <g transform="matrix(0.1,0,0,0.1,0,-152.005)">
        <path d="M1618.71,3818.58C1599.55,3818.58 1581.86,3820.05 1562.7,3823.01C1376.96,3853.99 1250.2,4029.54 1281.15,4215.42C1298.84,4327.54 1372.54,4423.43 1475.73,4470.64L1475.73,4472.11C1488.99,4480.97 1503.73,4486.87 1518.47,4491.29L1518.47,4489.82C1511.1,4488.34 1506.68,4485.39 1503.73,4483.92C1499.31,4479.49 1494.89,4473.59 1493.41,4467.69C1390.23,4424.91 1310.63,4331.97 1291.47,4213.95C1261.99,4032.49 1384.34,3862.84 1564.17,3833.33C1581.86,3830.38 1601.02,3828.9 1618.71,3828.9C1777.91,3828.9 1917.94,3943.97 1944.48,4106.25C1966.59,4237.55 1907.63,4364.42 1804.44,4433.76L1804.44,4438.19C1772.01,4461.79 1733.69,4478.02 1696.84,4486.87C1668.83,4494.24 1640.82,4498.67 1614.29,4498.67L1596.6,4498.67C1567.12,4498.67 1540.59,4495.72 1524.37,4491.29C1539.11,4498.67 1573.02,4504.57 1612.81,4504.57C1634.93,4504.57 1658.51,4501.62 1682.09,4498.67L1685.04,4498.67C1732.21,4489.82 1783.8,4473.59 1826.55,4441.13L1826.55,4438.19C1836.87,4430.81 1847.19,4420.48 1854.56,4410.15L1854.56,4407.2C1935.63,4329.02 1973.96,4215.42 1954.8,4104.77C1928.26,3936.6 1782.33,3818.58 1618.71,3818.58" style="fill:rgb(243,243,243)"/>
    </g>
    <g transform="matrix(-0.0986654,0.0162832,0.0162832,0.0986654,253.591,-173.096)">
        <path d="M1617.7,3832.39C1433.87,3832.88 1286.39,3981.14 1286.55,4163.25C1286.93,4346.84 1435.34,4494.05 1617.7,4493.81C1801.54,4493.33 1949.01,4345.07 1948.85,4162.94C1948.46,3979.37 1800.07,3832.16 1617.7,3832.39" style="fill:rgb(245,245,245)"/>
    </g>
    <g transform="matrix(-0.099912,0.00419359,0.00419359,0.099912,277.856,-110.468)">
        <path d="M1443.52,3838.08C1443.52,3838.08 1520.85,3854.03 1483.98,3994.4C1471.11,4003.8 1458.11,4010.25 1443.52,4013.82L1417.9,3859.83L1443.52,3838.08Z" style="fill:rgb(77,138,240)"/>
    </g>
    <g transform="matrix(-0.0961291,0.0275534,0.0275534,0.0961291,239.962,-147.843)">
        <path d="M1789.38,3885.31C1789.38,3885.31 1711.72,3901.42 1748.85,4041.59C1761.97,4050.15 1774.67,4057.27 1789.38,4060.75L1815.02,3905.67L1789.38,3885.31Z" style="fill:rgb(77,138,240)"/>
    </g>
    <g transform="matrix(-0.0986931,0.0161141,0.0161141,0.0986931,246.327,-194.951)">
        <path d="M1586.56,4130.06C1505.86,4129.79 1440.46,4195.73 1440.19,4276.43C1439.93,4357.11 1505.87,4422.52 1586.56,4422.78C1667.25,4423.05 1734.11,4356.87 1732.91,4276.42C1733.18,4195.73 1668.7,4130.09 1586.56,4130.06" style="fill:rgb(51,51,51)"/>
    </g>
    <g transform="matrix(0.1,0,0,0.1,0,-105.15)">
        <path d="M1748.07,3801.23L1496.2,3842.52L1488.84,3947.21C1488.84,3947.21 1482.94,3997.34 1503.56,4015.04C1524.18,4032.73 1692.1,4053.37 1799.63,3969.33C1805.52,3941.31 1802.57,3910.35 1789.32,3883.8C1768.7,3839.57 1786.38,3880.86 1786.38,3880.86L1748.07,3801.23" style="fill:rgb(77,138,240)"/>
    </g>
    <g transform="matrix(0.1,0,0,0.1,0,-105.354)">
        <path d="M1751.6,3803.27L1499.29,3844.46L1491.91,3948.92C1491.91,3948.92 1486,3997.47 1506.66,4015.12C1527.32,4032.78 1695.53,4053.37 1804.72,3970.99C1810.63,3941.56 1806.2,3912.14 1794.39,3885.66C1772.26,3841.52 1789.97,3882.71 1789.97,3882.71L1751.6,3803.27" style="fill:rgb(77,138,240)"/>
    </g>
    <g transform="matrix(0.1,0,0,0.1,0,-105.15)">
        <path d="M1749.94,3801.23L1497.26,3842.52L1489.88,3947.21C1489.88,3947.21 1483.96,3997.34 1504.65,4015.04C1525.34,4032.73 1693.79,4053.37 1801.65,3969.33C1807.56,3939.84 1804.61,3910.35 1791.31,3883.8C1770.62,3839.57 1788.36,3880.86 1788.36,3880.86L1749.94,3801.23" style="fill:rgb(77,138,240)"/>
    </g>
    <g transform="matrix(0.1,0,0,0.1,0,-132.303)">
        <path d="M1562.57,4025.8L1574.82,4100.33L1562.57,4025.8" style="fill:rgb(220,220,220)"/>
    </g>
    <g transform="matrix(0.1,0,0,0.1,0,-124.748)">
        <rect x="1571.24" y="4021.21" width="8.168" height="8.164" style="fill:rgb(69,124,216);"/>
    </g>
    <g transform="matrix(0.1,0,0,0.1,0,-121.585)">
        <path d="M1678.03,3982.93C1680.98,4003.58 1666.23,4024.22 1644.12,4027.17L1622,4031.59L1614.63,4031.59C1595.46,4031.59 1579.24,4018.32 1576.29,3999.15L1574.82,3993.26L1576.29,4002.1C1579.24,4021.27 1596.93,4036.02 1616.1,4036.02C1617.58,4036.02 1620.53,4036.02 1622,4034.54L1645.59,4031.59C1666.23,4027.17 1680.98,4008 1678.03,3985.88L1678.03,3982.93" style="fill:rgb(69,124,216)"/>
    </g>
    <g transform="matrix(0.1,0,0,0.1,0,-130.976)">
        <path d="M1561.55,4000.22L1661.81,3983.95L1676.56,4075.66C1680.98,4097.84 1666.23,4118.55 1644.12,4121.51L1622,4125.95C1599.88,4128.91 1579.24,4114.12 1576.29,4093.41L1561.55,4000.22" style="fill:rgb(253,165,125)"/>
    </g>
    <g transform="matrix(0.1,0,0,0.1,0,-140.878)">
        <path d="M1664.65,4095.22C1649.86,4103.79 1633.58,4109.51 1615.82,4112.37C1606.95,4113.8 1599.55,4113.8 1590.68,4113.8C1581.8,4113.8 1571.44,4112.37 1562.57,4110.94L1562.57,4113.8C1572.92,4115.23 1581.8,4116.66 1592.16,4116.66C1617.3,4116.66 1642.46,4109.51 1664.65,4098.08L1664.65,4095.22" style="fill:rgb(227,148,112)"/>
    </g>
    <g transform="matrix(-0.0986259,0.0165204,0.0165204,0.0986259,245.927,-188.998)">
        <path d="M1591.16,4097.27C1509.12,4097.58 1444.09,4163.69 1444.15,4244.27C1444.46,4326.3 1510.58,4391.33 1591.16,4391.27C1673.18,4390.95 1738.22,4324.84 1738.15,4244.27C1737.85,4162.24 1671.73,4097.2 1591.16,4097.27" style="fill:rgb(253,165,125)"/>
    </g>
    <g transform="matrix(0.1,0,0,0.1,0,-187.529)">
        <path d="M1458.95,4370.16C1447.11,4390.8 1444.15,4405.55 1444.15,4405.55L1447.11,4405.55C1448.59,4392.27 1453.03,4380.48 1458.95,4370.16M1605.4,4272.84C1595.05,4272.84 1586.17,4274.31 1575.82,4277.26C1529.95,4287.58 1498.89,4314.12 1478.18,4339.19C1500.37,4314.12 1531.43,4294.96 1566.94,4289.06C1575.82,4287.58 1583.21,4287.58 1592.09,4287.58C1643.87,4287.58 1692.69,4315.6 1719.31,4361.31L1720.79,4359.84C1720.79,4359.84 1686.77,4272.84 1605.4,4272.84" style="fill:rgb(46,46,46)"/>
    </g>
    <g transform="matrix(0.1,0,0,0.1,0,-186.1)">
        <path d="M1591.84,4272.84C1582.98,4272.84 1575.6,4272.84 1566.75,4274.32C1531.33,4280.24 1500.34,4299.48 1478.2,4324.65C1470.82,4335.01 1463.45,4345.37 1459.02,4355.73C1453.12,4366.09 1448.69,4377.93 1447.21,4391.26L1718.75,4346.85C1692.19,4300.96 1643.49,4272.84 1591.84,4272.84" style="fill:rgb(227,148,112)"/>
    </g>
    <g transform="matrix(0.1,0,0,0.1,0,-190.388)">
        <path d="M1443.13,4429.03L1720.79,4385.03C1720.79,4385.03 1677.96,4277.95 1574.58,4301.42C1471.19,4326.35 1443.13,4429.03 1443.13,4429.03Z" style="fill:rgb(51,51,51)"/>
    </g>
    <g transform="matrix(-0.0988906,0.0148543,0.0148543,0.0988906,225.678,-180.293)">
        <path d="M1449.76,4193.39C1442.1,4193.05 1436.18,4204.38 1435.17,4217.95C1435.87,4232.75 1442.09,4243.75 1449.76,4244.08C1457.43,4244.43 1463.35,4233.1 1464.14,4218.07C1463.66,4204.72 1457.22,4192.27 1449.76,4193.39Z" style="fill:rgb(253,165,125)"/>
    </g>
    <g transform="matrix(-0.0989523,0.0144373,0.0144373,0.0989523,282.771,-195.187)">
        <path d="M1731.62,4249.54C1723.96,4249.16 1718,4260.46 1717.14,4275.49C1717.56,4288.84 1723.96,4301.32 1731.62,4301.69C1739.07,4300.61 1745.04,4289.3 1746.11,4275.73C1745.47,4260.93 1739.3,4249.9 1731.62,4249.54Z" style="fill:rgb(253,165,125)"/>
    </g>
    <g transform="matrix(0.1,0,0,0.1,0,76.965)">
        <path d="M2518.96,4264.04L2489.47,4269.93L2489.47,4631.15L4263.32,4631.15C4253,4614.93 4242.68,4598.72 4233.83,4582.5L2518.96,4582.5L2518.96,4264.04M4813.31,3864.49C4817.74,3865.96 4822.16,3865.96 4825.11,3867.43L4825.11,3865.96L4813.31,3864.49M3521.64,1402.3L3220.83,1402.3L3223.78,1425.89L3518.69,1425.89L3521.64,1402.3" style="fill:rgb(247,247,247)"/>
    </g>
    <g transform="matrix(0.1,0,0,0.1,0,0.404)">
        <path d="M4795.64,4578.08L4795.64,4623.78C4801.53,4625.25 4807.43,4626.72 4813.32,4629.67L4825.11,4631.15L4825.11,4582.5L4795.64,4578.08M3553.38,2167.91L3522.43,2167.91L3519.48,2191.49L3548.95,2191.49L3553.38,2167.91" style="fill:rgb(244,244,244)"/>
    </g>
    <g transform="matrix(0.1,0,0,0.1,0,-4.394)">
        <path d="M4795.62,4178.47L4795.62,4626.73L4825.11,4631.15L4825.11,4182.9L4795.62,4178.47M4795.62,3675.66L4795.62,4078.2L4825.11,4082.63L4825.11,3680.08L4795.62,3675.66M4795.62,3423.52L4795.62,3573.92L4825.11,3578.34L4825.11,3427.94L4795.62,3423.52M4795.62,3171.38L4795.62,3323.25L4825.11,3327.67L4825.11,3175.8L4795.62,3171.38M4795.62,2919.23L4795.62,3071.11L4825.11,3075.53L4825.11,2923.66L4795.62,2919.23M4795.62,2366.29L4795.62,2818.97L4825.11,2823.39L4825.11,2370.71L4795.62,2366.29M3904.93,2215.89L3552.48,2215.89L3548.06,2239.48L3916.73,2239.48C3912.3,2232.11 3907.88,2224.74 3904.93,2215.89M4825.11,2215.89L4515.43,2215.89C4512.48,2224.74 4508.06,2232.11 4503.64,2239.48L4795.62,2239.48L4795.62,2264.54L4825.11,2268.97L4825.11,2215.89" style="fill:rgb(242,242,242)"/>
    </g>
    <g transform="matrix(0,0.1,0.1,0,83.4015,-198.351)">
        <path d="M4757.73,3961.49L4858.8,3961.49L4862.89,3991.1L4762.84,3991.1L4757.73,3961.49Z" style="fill:rgb(232,232,232)"/>
    </g>
    <g transform="matrix(0,0.1,0.1,0,108.616,-173.137)">
        <path d="M4757.73,3709.36L4858.81,3709.36L4862.89,3738.95L4762.85,3738.95L4757.73,3709.36Z" style="fill:rgb(232,232,232)"/>
    </g>
    <g transform="matrix(0,0.1,0.1,0,28.0215,-253.731)">
        <path d="M4757.23,4515.3L4859.32,4515.3L4863.4,4544.9L4762.34,4544.9L4757.23,4515.3Z" style="fill:rgb(174,170,247)"/>
    </g>
    <g transform="matrix(0,0.1,0.1,0,133.83,-147.922)">
        <path d="M4757.74,3457.21L4858.8,3457.21L4862.88,3486.81L4762.84,3486.81L4757.74,3457.21Z" style="fill:rgb(232,232,232)"/>
    </g>
    <g transform="matrix(0,0.1,0.1,0,158.993,-122.759)">
        <path d="M4757.23,3205.58L4859.31,3205.58L4863.39,3235.18L4761.31,3235.18L4757.23,3205.58Z" style="fill:rgb(232,232,232)"/>
    </g>
    <g transform="matrix(0,0.1,0.1,0,209.32,-72.4325)">
        <path d="M4758.24,2702.32L4858.28,2702.32L4862.38,2731.91L4762.34,2731.91L4758.24,2702.32Z" style="fill:rgb(232,232,232)"/>
    </g>
    <g transform="matrix(0.1,0,0,0.1,0,-243.573)">
        <path d="M3920.09,4607.68L3905.35,4607.68C3908.3,4616.48 3912.72,4623.82 3917.14,4631.15L3933.36,4631.15C3928.94,4623.82 3924.52,4616.48 3920.09,4607.68M4515.8,4607.68L4498.11,4607.68C4493.68,4616.48 4489.26,4623.82 4484.84,4631.15L4504,4631.15C4508.43,4623.82 4512.85,4616.48 4515.8,4607.68" style="fill:rgb(241,241,241)"/>
    </g>
    <g transform="matrix(0.1,0,0,0.1,0,-243.573)">
        <path d="M4005.13,4607.68L3919.64,4607.68C3924.06,4616.48 3928.48,4623.82 3932.91,4631.15L3994.81,4631.15C3997.76,4622.35 4000.71,4615.01 4005.13,4607.68M4497.43,4607.68L4310.23,4607.68C4314.66,4609.14 4329.39,4615.01 4339.71,4631.15L4484.16,4631.15C4488.58,4623.82 4493,4616.48 4497.43,4607.68" style="fill:rgb(242,242,242)"/>
    </g>
    <g transform="matrix(-0.1,0,0,0.1,804.038,-243.573)">
        <path d="M3995.18,4607.68L4034.9,4607.68C4039.31,4615.01 4042.25,4622.35 4045.2,4631.15L4004,4631.15L3995.18,4607.68" style="fill:rgb(246,203,183)"/>
    </g>
    <g transform="matrix(0.1,0,0,0.1,0,-243.573)">
        <path d="M4310.62,4607.68L4313.58,4631.15L4340.22,4631.15C4329.86,4615.01 4315.06,4609.14 4310.62,4607.68" style="fill:rgb(246,203,183)"/>
    </g>
    <g transform="matrix(-0.1,0,0,0.1,808.326,-243.573)">
        <path d="M4036.02,4607.68L4038.06,4607.68L4047.24,4631.15L4045.2,4631.15L4036.02,4607.68Z" style="fill:rgb(234,194,176)"/>
    </g>
    <g transform="matrix(-0.1,0,0,0.1,862.327,-243.573)">
        <path d="M4313.68,4607.68L4315.72,4607.68L4309.59,4631.15L4307.55,4631.15L4313.68,4607.68Z" style="fill:rgb(234,194,176)"/>
    </g>
    <g transform="matrix(0.1,0,0,0.1,0,-243.573)">
        <path d="M4138.45,4607.68L4046.91,4607.68L4038.05,4631.15L4160.59,4631.15C4150.26,4626.75 4141.4,4617.95 4138.45,4607.68M4309.71,4607.68L4234.41,4607.68C4231.46,4617.95 4225.55,4626.75 4216.7,4631.15L4312.66,4631.15L4309.71,4607.68" style="fill:rgb(246,228,147)"/>
    </g>
    <g transform="matrix(0.1,0,0,0.1,0,-243.573)">
        <path d="M4139.57,4607.68L4138.1,4607.68C4141.05,4617.95 4149.91,4626.75 4160.24,4631.15L4177.96,4631.15L4170.57,4629.69C4155.81,4628.22 4145.48,4619.42 4139.57,4607.68M4234.05,4607.68C4229.63,4619.42 4220.77,4628.22 4208.96,4631.15L4216.34,4631.15C4225.2,4626.75 4231.1,4617.95 4234.05,4607.68" style="fill:rgb(234,217,144)"/>
    </g>
    <g transform="matrix(0.1,0,0,0.1,0,-243.573)">
        <path d="M4234.05,4607.68L4140.14,4607.68C4146.01,4619.42 4156.28,4628.22 4170.95,4629.69L4178.29,4631.15L4209.11,4631.15C4220.85,4628.22 4229.65,4619.42 4234.05,4607.68" style="fill:rgb(246,203,183)"/>
    </g>
    <g transform="matrix(0.1,0,0,0.1,0,40.828)">
        <path d="M2519.07,4560.71L2489.47,4564.8L2489.47,4631.15L2519.07,4625.03L2519.07,4560.71ZM3221.4,1763.67L3184.65,1763.67L3188.73,1787.14L3224.46,1787.14L3221.4,1763.67Z" style="fill:rgb(244,244,244)"/>
    </g>
    <g transform="matrix(0.1,0,0,0.1,0,34.193)">
        <path d="M2519.07,4176.88L2489.47,4180.97L2489.47,4631.15L2519.07,4627.06L2519.07,4176.88ZM2519.07,3924.74L2489.47,3928.83L2489.47,4080.93L2519.07,4074.8L2519.07,3924.74ZM2519.07,3672.6L2489.47,3677.7L2489.47,3828.78L2519.07,3822.66L2519.07,3672.6ZM2519.07,3419.44L2489.47,3425.56L2489.47,3575.62L2519.07,3571.54L2519.07,3419.44ZM2519.07,3167.29L2489.47,3173.42L2489.47,3323.48L2519.07,3319.4L2519.07,3167.29ZM2519.07,2915.15L2489.47,2919.23L2489.47,3071.33L2519.07,3067.25L2519.07,2915.15ZM2519.07,2360.84L2489.47,2364.93L2489.47,2819.19L2519.07,2815.11L2519.07,2360.84ZM2519.07,2108.7L2489.47,2112.78L2489.47,2264.88L2519.07,2258.76L2519.07,2108.7ZM3184.65,1830.02L2489.47,1830.02L2489.47,2010.7L2519.07,2006.62L2519.07,1853.49L3188.73,1853.49L3184.65,1830.02Z" style="fill:rgb(242,242,242)"/>
    </g>
    <g transform="matrix(-0.0990634,0.0136547,0.0136547,0.0990634,449.433,-69.3187)">
        <path d="M2482.5,3544.45L2512.38,3544.45L2526.04,3643.55L2496.16,3643.55L2482.5,3544.45Z" style="fill:rgb(232,232,232)"/>
    </g>
    <g transform="matrix(-0.0990634,0.0136547,0.0136547,0.0990634,452.89,-18.9229)">
        <path d="M2482.36,3290.27L2512.24,3290.27L2526.18,3391.4L2496.02,3389.37L2482.36,3290.27Z" style="fill:rgb(232,232,232)"/>
    </g>
    <g transform="matrix(-0.0990634,0.0136547,0.0136547,0.0990634,438.408,-230.056)">
        <path d="M2482.36,4350.91L2512.24,4350.91L2526.18,4452.03L2496.3,4452.03L2482.36,4350.91Z" style="fill:rgb(232,232,232)"/>
    </g>
    <g transform="matrix(-0.0979288,0.0202474,0.0202474,0.0979288,411.654,-191.666)">
        <path d="M2479.03,4100.34L2509.25,4100.34L2529.51,4198.31L2499.7,4200.3L2479.03,4100.34Z" style="fill:rgb(174,170,247)"/>
    </g>
    <g transform="matrix(-0.0990588,0.0136875,0.0136875,0.0990588,456.22,31.2007)">
        <path d="M2482.34,3038.14L2512.22,3038.14L2526.2,3139.26L2496.04,3137.24L2482.34,3038.14Z" style="fill:rgb(232,232,232)"/>
    </g>
    <g transform="matrix(-0.0990634,0.0136547,0.0136547,0.0990634,459.776,81.4618)">
        <path d="M2482.36,2785.99L2512.24,2785.99L2526.18,2887.11L2496.16,2886.1L2482.36,2785.99Z" style="fill:rgb(232,232,232)"/>
    </g>
    <g transform="matrix(-0.0979288,0.0202474,0.0202474,0.0979288,443.319,117.875)">
        <path d="M2479.03,2536.44L2509.25,2536.44L2529.51,2634.41L2499.7,2636.4L2479.03,2536.44Z" style="fill:rgb(232,232,232)"/>
    </g>
    <g transform="matrix(-0.0979222,0.0202792,0.0202792,0.0979222,448.334,167.717)">
        <path d="M2479.01,2284.3L2509.24,2284.3L2529.53,2382.27L2499.71,2384.26L2479.01,2284.3Z" style="fill:rgb(232,232,232)"/>
    </g>
    <g transform="matrix(0.1,0,0,0.1,0,74.412)">
        <rect x="2519.07" y="1451.3" width="2276.43" height="3156.38" style="fill:white;"/>
    </g>
    <g transform="matrix(0.1,0,0,0.1,0,-96.472)">
        <path d="M2979.43,4161.3C2891.04,4100.8 2833.59,3997.52 2833.59,3882.43C2833.59,3695.05 2985.32,3543.07 3172.4,3543.07C3359.48,3543.07 3511.21,3695.05 3511.21,3882.43C3511.21,4000.47 3450.81,4103.75 3360.95,4164.25L3360.95,4165.72C3350.64,4174.57 3340.33,4181.95 3328.55,4187.86C3328.55,4187.86 3327.07,4189.33 3327.07,4190.8C3281.41,4214.41 3228.38,4223.27 3179.77,4223.27L3176.82,4223.27C3101.69,4223.27 3035.4,4202.61 3019.2,4189.33L3017.73,4190.8C3004.47,4184.9 2991.21,4176.05 2979.43,4165.72L2979.43,4161.3M3172.4,3532.75C2979.43,3532.75 2823.28,3689.14 2823.28,3882.43C2823.28,3997.52 2879.26,4105.23 2973.54,4170.15L2975.01,4174.57C2983.85,4183.43 2995.63,4190.8 3007.41,4196.71C3008.89,4198.18 3008.89,4199.66 3008.89,4199.66C3056.03,4226.22 3110.53,4235.07 3160.62,4235.07L3163.56,4235.07C3243.11,4235.07 3310.87,4211.46 3327.07,4198.18L3327.07,4199.66C3341.8,4193.76 3355.06,4184.9 3366.85,4174.57L3366.85,4173.1C3464.07,4108.18 3521.52,3999 3521.52,3882.43C3521.52,3689.14 3365.38,3532.75 3172.4,3532.75" style="fill:rgb(248,248,248)"/>
    </g>
    <g transform="matrix(-0.0707637,-0.0706576,-0.0706576,0.0707637,816.267,240.972)">
        <ellipse cx="3172.4" cy="3885.44" rx="339.171" ry="339.449" style="fill:rgb(245,245,245);"/>
    </g>
    <g transform="matrix(-0.0992417,-0.0122921,-0.0122921,0.0992417,645.007,-13.1928)">
        <path d="M2993.64,3574.83C2993.64,3574.83 3072.97,3590.57 3034.55,3733.73C3021.65,3742.49 3007.47,3749.6 2993.64,3753.81L2967.47,3595.26L2993.64,3574.83" style="fill:rgb(190,124,94)"/>
    </g>
    <g transform="matrix(-0.0992417,0.0122921,0.0122921,0.0992417,618.328,-91.1333)">
        <path d="M3347.08,3574.83C3347.08,3574.83 3267.75,3590.57 3306.17,3733.73C3319.07,3742.49 3333.26,3749.6 3347.08,3753.81L3373.25,3595.26L3347.08,3574.83" style="fill:rgb(190,124,94)"/>
    </g>
    <g transform="matrix(0.1,0,0,0.1,0,-87.795)">
        <path d="M3043.01,3683.83C3043.01,3683.83 3037.11,3701.48 3028.25,3723.55C3009.07,3769.16 3031.2,3944.25 3076.94,3963.38C3128.59,3983.98 3196.46,3997.22 3267.28,3972.21C3327.78,3948.66 3346.96,3750.03 3304.17,3701.48C3298.27,3695.6 3293.84,3689.71 3287.94,3683.83L3043.01,3683.83" style="fill:rgb(51,51,51)"/>
    </g>
    <g transform="matrix(-0.0708303,-0.0705908,-0.0705908,0.0708303,824.866,219.575)">
        <ellipse cx="3172.4" cy="4007.94" rx="150.317" ry="150.599" style="fill:rgb(51,51,51);"/>
    </g>
    <g transform="matrix(0,0.1,0.1,0,-46.3455,14.1845)">
        <path d="M3081.55,3482.74L3082.99,3482.74C3096.01,3498.95 3116.26,3565.31 3116.26,3640.51L3116.26,3641.97C3116.26,3563.84 3094.57,3496.01 3081.55,3482.74" style="fill:rgb(223,223,223)"/>
    </g>
    <g transform="matrix(0.1,0,0,0.1,0,-53.088)">
        <path d="M3039.7,3578.69L3038.23,3578.69L3013.45,3683.18C3013.45,3683.18 2998.86,3731.75 3016.36,3752.35C3017.82,3753.82 3017.82,3753.82 3019.28,3755.29L3019.28,3753.82C3019.28,3753.82 3019.28,3752.35 3017.82,3752.35C3000.32,3731.75 3014.9,3683.18 3014.9,3683.18L3039.7,3578.69" style="fill:rgb(171,111,84)"/>
    </g>
    <g transform="matrix(0.1,0,0,0.1,0,-63.194)">
        <path d="M3303.5,3680.77C3303.5,3682.24 3303.5,3683.71 3302.05,3683.71L3319.55,3746.92C3321,3746.92 3321,3748.39 3322.46,3754.27C3322.46,3749.86 3321,3746.92 3321,3746.92L3322.46,3746.92L3303.5,3680.77" style="fill:rgb(171,111,84)"/>
    </g>
    <g transform="matrix(-0.1,0,0,0.1,660.511,-70.339)">
        <path d="M3298.47,3749.16L3306.64,3749.16L3302.56,3757.33C3298.47,3757.33 3298.47,3754.6 3298.47,3751.88L3298.47,3749.16" style="fill:rgb(46,46,46)"/>
    </g>
    <g transform="matrix(0.1,0,0,0.1,0,-55.333)">
        <path d="M3318.89,3668.52L3327.05,3687.91C3327.05,3687.91 3325.01,3680.45 3322.97,3675.97C3320.93,3670.01 3320.93,3668.52 3318.89,3668.52" style="fill:rgb(154,100,75)"/>
    </g>
    <g transform="matrix(0.1,0,0,0.1,0,-32.161)">
        <path d="M3328.59,3545C3327.11,3545 3327.11,3545 3325.64,3546.45L3325.64,3547.89C3279.89,3571.03 3228.24,3579.71 3179.55,3579.71C3228.24,3579.71 3281.37,3571.03 3327.11,3547.89C3327.11,3546.45 3328.59,3545 3328.59,3545" style="fill:rgb(223,223,223)"/>
    </g>
    <g transform="matrix(0.1,0,0,0.1,0,-46.35)">
        <path d="M3323.95,3578.69C3322.46,3578.69 3323.95,3583.12 3325.43,3589.02C3325.43,3591.97 3326.92,3596.4 3328.4,3600.83C3337.31,3628.87 3335.82,3659.87 3325.43,3687.91C3326.92,3686.44 3326.92,3686.44 3328.4,3686.44C3337.31,3658.39 3338.79,3628.87 3331.37,3600.83C3325.43,3584.59 3323.95,3578.69 3323.95,3578.69" style="fill:rgb(171,111,84)"/>
    </g>
    <g transform="matrix(0.1,0,0,0.1,0,-46.35)">
        <path d="M3300.89,3511.31L3039.72,3511.31L3014.64,3615.66C3014.64,3615.66 2999.88,3664.16 3017.59,3684.74C3036.77,3706.79 3203.5,3755.29 3325.97,3689.15C3336.3,3661.22 3337.77,3630.36 3328.92,3600.96C3315.64,3552.46 3325.97,3598.03 3325.97,3598.03L3300.89,3511.31" style="fill:rgb(58,210,159)"/>
    </g>
    <g transform="matrix(0.1,0,0,0.1,0,-65.95)">
        <path d="M3119.32,3707.31L3119.32,3716.03C3119.32,3737.84 3137.09,3755.29 3159.3,3755.29L3184.48,3755.29C3206.69,3755.29 3224.46,3737.84 3224.46,3716.03L3224.46,3713.13C3224.46,3733.48 3206.69,3750.93 3184.48,3750.93L3159.3,3750.93C3137.09,3750.93 3119.32,3733.48 3119.32,3713.13L3119.32,3707.31" style="fill:rgb(52,189,143)"/>
    </g>
    <g transform="matrix(0.1,0,0,0.1,0,-75.545)">
        <path d="M3119.32,3711.39L3224.46,3711.39L3224.46,3808.79C3224.46,3829.45 3206.69,3847.16 3184.48,3847.16L3159.3,3847.16C3137.09,3847.16 3119.32,3829.45 3119.32,3808.79L3119.32,3711.39" style="fill:rgb(190,124,94)"/>
    </g>
    <g transform="matrix(0.1,0,0,0.1,0,-85.447)">
        <path d="M3119.32,3823.68L3119.32,3825.14C3137.09,3830.97 3154.86,3833.89 3172.63,3833.89C3190.4,3833.89 3208.17,3830.97 3224.46,3825.14L3224.46,3823.68C3208.17,3829.51 3190.4,3832.43 3172.63,3832.43C3153.38,3832.43 3135.61,3829.51 3119.32,3823.68" style="fill:rgb(171,111,84)"/>
    </g>
    <g transform="matrix(-0.070832,-0.0705892,-0.0705892,0.070832,822.559,225.143)">
        <ellipse cx="3172.4" cy="3975.28" rx="150.32" ry="150.604" style="fill:rgb(190,124,94);"/>
    </g>
    <g transform="matrix(0.1,0,0,0.1,0,-137.815)">
        <path d="M3029.48,4148.3L3315.32,4148.3C3315.32,4148.3 3290.27,4032.95 3182.71,4040.34C3073.69,4047.73 3029.48,4148.3 3029.48,4148.3" style="fill:rgb(51,51,51)"/>
    </g>
    <g transform="matrix(-0.0887464,-0.0460876,-0.0460876,0.0887464,754.6,68.3884)">
        <path d="M3025.92,3959.74C3016.36,3966.47 3008.62,3981.37 3008.62,3993.05C3008.62,4004.73 3016.36,4008.75 3025.92,4002.03C3035.47,3995.32 3043.21,3980.41 3043.21,3968.72C3043.21,3957.05 3035.47,3953.03 3025.92,3959.74Z" style="fill:rgb(190,124,94)"/>
    </g>
    <g transform="matrix(-0.0880456,-0.0474128,-0.0474128,0.0880456,812.944,89.1031)">
        <path d="M3319.41,3959.58C3309.57,3966.06 3301.6,3980.85 3301.61,3992.62C3301.61,4004.39 3309.57,4008.68 3319.41,4002.2C3329.23,3995.72 3337.2,3980.93 3337.2,3969.16C3337.19,3957.39 3329.23,3953.1 3319.41,3959.58Z" style="fill:rgb(190,124,94)"/>
    </g>
    <g transform="matrix(0.1,0,0,0.1,0,-125.872)">
        <path d="M3033.91,4026.83L3030.96,4026.83C3029.48,4032.27 3029.48,4034.99 3029.48,4034.99L3032.43,4034.99C3032.43,4032.27 3032.43,4029.55 3033.91,4026.83M3313.84,4026.83L3310.89,4026.83C3312.37,4029.55 3312.37,4032.27 3312.37,4034.99L3315.32,4034.99C3315.32,4034.99 3315.32,4032.27 3313.84,4026.83" style="fill:rgb(46,46,46)"/>
    </g>
    <g transform="matrix(-0.1,0,0,0.1,634.48,-125.872)">
        <path d="M3034.02,4026.83L3310.78,4026.83C3312.25,4029.55 3312.25,4032.27 3312.25,4034.99L3032.55,4034.99C3032.55,4032.27 3032.55,4029.55 3034.02,4026.83" style="fill:rgb(171,111,84)"/>
    </g>
    <g transform="matrix(0.1,0,0,0.1,0,-136.693)">
        <path d="M3193.09,4032.95C3188.66,4032.95 3185.7,4032.95 3182.75,4034.42C3086.67,4040.29 3039.38,4119.48 3030.51,4137.08L3314.3,4137.08C3309.86,4118.01 3281.78,4032.95 3193.09,4032.95" style="fill:rgb(46,46,46)"/>
    </g>
    <g transform="matrix(0.1,0,0,0.1,0,42.564)">
        <rect x="2823.28" y="3139.73" width="1642.5" height="98" style="fill:rgb(224,224,224);"/>
    </g>
    <g transform="matrix(0.1,0,0,0.1,0,92.482)">
        <rect x="2823.28" y="2889.63" width="1642.5" height="99.019" style="fill:rgb(224,224,224);"/>
    </g>
    <g transform="matrix(0.1,0,0,0.1,0,-116.888)">
        <rect x="3619.52" y="3935.97" width="846.262" height="100.043" style="fill:rgb(224,224,224);"/>
    </g>
    <g transform="matrix(0.1,0,0,0.1,0,-66.9719)">
        <rect x="3694.04" y="3685.88" width="697.223" height="101.059" style="fill:rgb(108,99,255);"/>
    </g>
    <g transform="matrix(0.1,0,0,0.1,0,142.094)">
        <rect x="2823.28" y="2640.55" width="1443.44" height="101.063" style="fill:rgb(224,224,224);"/>
    </g>
    <g transform="matrix(0.1,0,0,0.1,0,191.91)">
        <rect x="2823.28" y="2391.47" width="1244.38" height="101.063" style="fill:rgb(224,224,224);"/>
    </g>
    <g transform="matrix(0.1,0,0,0.1,0,241.828)">
        <rect x="2823.28" y="2142.39" width="1095.34" height="100.043" style="fill:rgb(224,224,224);"/>
    </g>
    <g transform="matrix(0.1,0,0,0.1,0,291.644)">
        <rect x="2823.28" y="1893.31" width="1393.42" height="100.039" style="fill:rgb(224,224,224);"/>
    </g>
    <g transform="matrix(0.1,0,0,0.1,0,341.46)">
        <rect x="2823.28" y="1644.23" width="547.16" height="100.043" style="fill:rgb(108,99,255);"/>
    </g>
    <g transform="matrix(0.1,0,0,0.1,0,344.114)">
        <path d="M4825.45,1196.09L4825.45,1959.53L4263.66,1959.53C4355.08,2084.81 4501.05,2165.87 4667.68,2165.87C4943.41,2165.87 5166.06,1943.32 5166.06,1667.71C5166.06,1448.11 5023.04,1262.41 4825.45,1196.09" style="fill:rgb(248,248,248)"/>
    </g>
    <g transform="matrix(0.1,0,0,0.1,0,322.88)">
        <path d="M4795.63,1402.3L4795.63,2123.34L4234.05,2123.34C4242.9,2139.57 4253.21,2155.78 4263.54,2172L4825.11,2172L4825.11,1408.2C4822.16,1406.73 4817.74,1406.73 4813.32,1405.25L4795.63,1402.3" style="fill:rgb(244,244,244)"/>
    </g>
    <g transform="matrix(0.1,0,0,0.1,0,245.911)">
        <path d="M4795.51,2167.91L4795.51,2171.99L4813.88,2176.08C4807.75,2171.99 4801.63,2169.95 4795.51,2167.91" style="fill:rgb(243,243,243)"/>
    </g>
    <g transform="matrix(0.1,0,0,0.1,0,316.041)">
        <path d="M4667.32,1451.3C4468.4,1451.3 4296.01,1569.24 4216.44,1738.79L4216.44,1749.1L4212.02,1749.1C4185.5,1809.55 4170.76,1877.37 4170.76,1948.14C4170.76,2036.59 4192.87,2120.63 4234.12,2191.39L4795.51,2191.39L4795.51,1467.51C4754.25,1457.2 4711.52,1451.3 4667.32,1451.3" style="fill:rgb(248,248,248)"/>
    </g>
    <g transform="matrix(0.1,0,0,0.1,0,300.627)">
        <path d="M4218.23,1893.31C4215.51,1896.23 4212.79,1899.14 4210.07,1903.52L4218.23,1903.52L4218.23,1893.31" style="fill:rgb(233,233,233)"/>
    </g>
    <g transform="matrix(-0.0707107,-0.0707107,-0.0707107,0.0707107,916.714,721.277)">
        <ellipse cx="4668.41" cy="1693.74" rx="468.052" ry="468.048" style="fill:rgb(105,240,174);"/>
    </g>
    <g transform="matrix(0.1,0,0,0.1,0,339.316)">
        <path d="M4463.74,1653.42L4641.36,1814.71L4888.4,1448.23L4977.21,1522.75L4641.36,1961.71L4391.26,1683.02L4463.74,1653.42Z" style="fill:white"/>
    </g>
</svg>
